<svg width="512" height="508" viewBox="0 0 512 508" fill="none" xmlns="http://www.w3.org/2000/svg">
<ellipse cx="256" cy="264.372" rx="256" ry="243.628" fill="#0066FF"/>
<path d="M269.363 364.812C278.854 364.812 286.575 363.608 292.525 361.2C298.617 358.792 303.363 355.675 306.763 351.85C310.163 348.025 312.5 343.704 313.775 338.887C315.05 334.071 315.688 329.183 315.688 324.225C315.688 318.558 314.908 313.458 313.35 308.925C311.933 304.392 309.383 300.567 305.7 297.45C302.158 294.333 297.413 291.925 291.463 290.225C285.513 288.525 278.004 287.675 268.938 287.675H218.788V364.812H269.363ZM218.788 163.15V239.65H256.188C264.121 239.65 271.275 239.083 277.65 237.95C284.025 236.817 289.408 234.833 293.8 232C298.333 229.167 301.733 225.271 304 220.312C306.408 215.354 307.613 209.121 307.613 201.612C307.613 194.246 306.692 188.154 304.85 183.337C303.008 178.379 300.175 174.412 296.35 171.437C292.525 168.462 287.638 166.337 281.688 165.062C275.879 163.787 268.938 163.15 260.863 163.15H218.788ZM260.863 109.387C282.254 109.387 300.458 111.371 315.475 115.337C330.492 119.304 342.746 124.9 352.237 132.125C361.729 139.35 368.6 148.133 372.85 158.475C377.242 168.817 379.438 180.362 379.438 193.112C379.438 200.054 378.446 206.783 376.463 213.3C374.479 219.675 371.363 225.696 367.113 231.362C362.863 236.887 357.408 241.987 350.75 246.662C344.092 251.337 336.088 255.375 326.738 258.775C347.138 263.733 362.225 271.737 372 282.787C381.775 293.837 386.663 308.146 386.663 325.712C386.663 338.887 384.113 351.142 379.013 362.475C373.913 373.808 366.404 383.725 356.488 392.225C346.713 400.583 334.6 407.171 320.15 411.988C305.7 416.663 289.196 419 270.638 419H146.963V109.387H260.863Z" fill="white"/>
</svg>
